<?xml version="1.0" encoding="utf-8"?>
<!-- Generator: Adobe Illustrator 22.1.0, SVG Export Plug-In . SVG Version: 6.00 Build 0)  -->
<svg version="1.1" baseProfile="tiny" id="Capa_1" xmlns="http://www.w3.org/2000/svg" xmlns:xlink="http://www.w3.org/1999/xlink"
	 x="0px" y="0px" viewBox="0 0 56 56" xml:space="preserve">
<rect fill="#EBBA16" width="28" height="28"/>
<rect x="28" fill="#ED8A19" width="28" height="28"/>
<rect y="28" fill="#ED8A19" width="28" height="28"/>
<rect x="28" y="28" fill="#556080" width="28" height="28"/>
<path fill="#FFFFFF" d="M48,46H36c-0.55,0-1-0.45-1-1s0.45-1,1-1h12c0.55,0,1,0.45,1,1S48.55,46,48,46z"/>
<path fill="#FFFFFF" d="M48,40H36c-0.55,0-1-0.45-1-1s0.45-1,1-1h12c0.55,0,1,0.45,1,1S48.55,40,48,40z"/>
<path fill="#FFFFFF" d="M14,43c-0.26,0-0.51-0.1-0.71-0.29c-0.39-0.39-0.39-1.02,0-1.41l5-5c0.39-0.39,1.02-0.39,1.41,0
	s0.39,1.02,0,1.41l-5,5C14.51,42.9,14.26,43,14,43z"/>
<path fill="#FFFFFF" d="M9,48c-0.26,0-0.51-0.1-0.71-0.29c-0.39-0.39-0.39-1.02,0-1.41l5-5c0.39-0.39,1.02-0.39,1.41,0
	s0.39,1.02,0,1.41l-5,5C9.51,47.9,9.26,48,9,48z"/>
<path fill="#FFFFFF" d="M19,48c-0.26,0-0.51-0.1-0.71-0.29l-5-5c-0.39-0.39-0.39-1.02,0-1.41s1.02-0.39,1.41,0l5,5
	c0.39,0.39,0.39,1.02,0,1.41C19.51,47.9,19.26,48,19,48z"/>
<path fill="#FFFFFF" d="M14,43c-0.26,0-0.51-0.1-0.71-0.29l-5-5c-0.39-0.39-0.39-1.02,0-1.41s1.02-0.39,1.41,0l5,5
	c0.39,0.39,0.39,1.02,0,1.41C14.51,42.9,14.26,43,14,43z"/>
<path fill="#FFFFFF" d="M20,15H8c-0.55,0-1-0.45-1-1s0.45-1,1-1h12c0.55,0,1,0.45,1,1S20.55,15,20,15z"/>
<path fill="#FFFFFF" d="M14,21c-0.55,0-1-0.45-1-1V8c0-0.55,0.45-1,1-1s1,0.45,1,1v12C15,20.55,14.55,21,14,21z"/>
<path fill="#FFFFFF" d="M48,15H36c-0.55,0-1-0.45-1-1s0.45-1,1-1h12c0.55,0,1,0.45,1,1S48.55,15,48,15z"/>
</svg>
