<svg width="61" height="61" viewBox="0 0 61 61" fill="none" xmlns="http://www.w3.org/2000/svg">
<g clip-path="url(#clip0_15396_11113)">
<path d="M32.5074 55.517C46.3196 55.517 57.5167 44.3396 57.5167 30.5515C57.5167 16.7634 46.3196 5.58594 32.5074 5.58594C18.6951 5.58594 7.49805 16.7634 7.49805 30.5515C7.49805 44.3396 18.6951 55.517 32.5074 55.517Z" fill="white"/>
<path d="M56.8585 18.6051C56.0431 18.2062 55.3564 17.5762 54.8797 16.7896C54.403 16.0031 54.1562 15.0929 54.1686 14.1671C54.1949 13.7496 54.1399 13.331 54.007 12.9355C53.874 12.5401 53.6656 12.1756 53.394 11.8634C53.1223 11.5512 52.7929 11.2975 52.4247 11.1169C52.0565 10.9364 51.657 10.8327 51.2493 10.8119C50.3505 10.7236 49.4953 10.3726 48.7855 9.80046C48.0757 9.22837 47.5413 8.45934 47.2458 7.58487C47.1312 7.18225 46.9396 6.80701 46.6823 6.48097C46.4249 6.15493 46.1068 5.88461 45.7465 5.68574C45.3862 5.48687 44.991 5.36341 44.5837 5.32256C44.1764 5.28171 43.7653 5.32428 43.3743 5.44779C42.4961 5.68438 41.57 5.65632 40.707 5.36697C39.844 5.07762 39.0808 4.53927 38.5088 3.81648C38.2667 3.47932 37.9616 3.19489 37.6111 2.97977C37.2607 2.76465 36.8721 2.62314 36.4678 2.56347C36.0635 2.5038 35.6516 2.52717 35.2562 2.63222C34.8608 2.73727 34.4898 2.9219 34.1647 3.17536C33.4216 3.70071 32.5466 3.99554 31.6443 4.0246C30.742 4.05366 29.8506 3.8157 29.0768 3.3392C28.7369 3.10728 28.3553 2.94697 27.9544 2.8676C27.5534 2.78824 27.1411 2.79141 26.7413 2.87693C26.3416 2.96245 25.9624 3.12861 25.6259 3.36573C25.2895 3.60286 25.0023 3.90622 24.7813 4.25815C24.2584 5.01234 23.5345 5.59617 22.6963 5.93979C21.8581 6.28341 20.9411 6.37228 20.0549 6.19577C19.6587 6.10204 19.2483 6.08947 18.8474 6.1588C18.4464 6.22812 18.0628 6.37797 17.7186 6.59973C17.3743 6.82149 17.0762 7.11079 16.8414 7.45101C16.6065 7.79122 16.4396 8.17564 16.3502 8.58218C16.1095 9.47359 15.6238 10.2753 14.9509 10.8916C14.278 11.508 13.4464 11.913 12.5552 12.0585C12.1468 12.1051 11.7515 12.2348 11.3927 12.44C11.0338 12.6452 10.7186 12.9218 10.4654 13.2536C10.2123 13.5854 10.0263 13.9656 9.91851 14.372C9.81068 14.7784 9.78313 15.2028 9.83748 15.6203C9.90693 16.5387 9.71712 17.4582 9.2907 18.2691C8.86428 19.0801 8.21925 19.7481 7.43256 20.1937C7.06473 20.3777 6.73639 20.635 6.46674 20.9506C6.19708 21.2662 5.99153 21.6337 5.86209 22.0317C5.73266 22.4296 5.68194 22.8501 5.71291 23.2684C5.74387 23.6866 5.8559 24.0944 6.04244 24.4678C6.42166 25.3064 6.55776 26.2391 6.43453 27.1547C6.31131 28.0703 5.93395 28.9303 5.34738 29.6324C5.06648 29.9358 4.84709 30.2933 4.70191 30.6842C4.55672 31.0751 4.48862 31.4916 4.50155 31.9097C4.51448 32.3277 4.60818 32.739 4.77722 33.1196C4.94627 33.5003 5.18731 33.8429 5.48639 34.1274C6.12052 34.7877 6.55597 35.6209 6.74083 36.5278C6.92569 37.4347 6.85215 38.3769 6.52898 39.2422C6.36511 39.6249 6.27703 40.0371 6.26987 40.455C6.26271 40.8728 6.33661 41.288 6.48728 41.6764C6.63794 42.0647 6.86237 42.4185 7.14754 42.7173C7.43271 43.016 7.77294 43.2537 8.14848 43.4166C8.96413 43.8144 9.65083 44.4444 10.1266 45.2314C10.6023 46.0183 10.847 46.929 10.8314 47.8546C10.8051 48.2717 10.8601 48.6899 10.9932 49.085C11.1262 49.4801 11.3347 49.844 11.6064 50.1557C11.8781 50.4673 12.2077 50.7204 12.5758 50.9002C12.944 51.0799 13.3434 51.1828 13.7507 51.2027C14.6501 51.2892 15.5061 51.6397 16.2161 52.212C16.9262 52.7843 17.4602 53.5543 17.7542 54.4297C17.8688 54.8323 18.0604 55.2076 18.3178 55.5336C18.5751 55.8596 18.8932 56.13 19.2535 56.3288C19.6138 56.5277 20.009 56.6512 20.4163 56.692C20.8236 56.7329 21.2347 56.6903 21.6257 56.5668C22.5038 56.3265 23.431 56.3528 24.2947 56.6424C25.1584 56.932 25.9215 57.4724 26.4912 58.1981C26.7339 58.5345 27.0393 58.8182 27.3897 59.0327C27.7402 59.2473 28.1286 59.3885 28.5327 59.4481C28.9367 59.5077 29.3483 59.4846 29.7435 59.3801C30.1388 59.2756 30.5099 59.0917 30.8353 58.8392C31.5784 58.3139 32.4534 58.019 33.3557 57.99C34.258 57.9609 35.1494 58.1989 35.9232 58.6754C36.2635 58.907 36.6454 59.0668 37.0467 59.1457C37.4479 59.2245 37.8604 59.2207 38.2602 59.1345C38.66 59.0483 39.039 58.8815 39.3753 58.6436C39.7115 58.4058 39.9982 58.1018 40.2187 57.7493C40.7439 56.9959 41.4691 56.4128 42.3082 56.0693C43.1473 55.7258 44.0649 55.6364 44.9521 55.8117C45.3483 55.9109 45.7599 55.9282 46.1628 55.8626C46.5657 55.797 46.9518 55.6498 47.2986 55.4297C47.6454 55.2095 47.946 54.9208 48.1827 54.5803C48.4195 54.2398 48.5877 53.8545 48.6776 53.4466C48.9155 52.5573 49.3966 51.7562 50.064 51.1377C50.7315 50.5193 51.5575 50.1093 52.4448 49.9561C52.8536 49.9104 53.2494 49.7813 53.6087 49.5764C53.968 49.3715 54.2836 49.0948 54.5369 48.7629C54.7902 48.4309 54.9761 48.0502 55.0835 47.6434C55.191 47.2366 55.2178 46.8119 55.1625 46.3943C55.0928 45.4719 55.2822 44.5484 55.7084 43.7329C56.1346 42.9174 56.7797 42.244 57.5674 41.7924C57.9353 41.6084 58.2636 41.3511 58.5333 41.0355C58.8029 40.7199 59.0085 40.3524 59.1379 39.9544C59.2673 39.5564 59.3181 39.136 59.2871 38.7177C59.2561 38.2994 59.1441 37.8917 58.9576 37.5183C58.5783 36.6797 58.4422 35.747 58.5655 34.8314C58.6887 33.9158 59.0661 33.0557 59.6526 32.3536C59.9335 32.0502 60.1529 31.6927 60.2981 31.3019C60.4433 30.911 60.5114 30.4945 60.4985 30.0764C60.4855 29.6584 60.3918 29.2471 60.2228 28.8664C60.0537 28.4858 59.8127 28.1432 59.5136 27.8587C58.8801 27.1995 58.4449 26.3675 58.2601 25.4618C58.0752 24.5562 58.1484 23.6152 58.471 22.751C58.6317 22.3704 58.7175 21.961 58.7234 21.5463C58.7293 21.1317 58.6551 20.7199 58.5053 20.3347C58.3555 19.9494 58.1329 19.5983 57.8502 19.3015C57.5676 19.0047 57.2306 18.768 56.8585 18.6051ZM41.9494 54.5009C37.416 56.4169 32.43 56.912 27.6221 55.9236C22.8141 54.9353 18.4001 52.5078 14.9383 48.9484C11.4764 45.3889 9.12223 40.8572 8.17342 35.9264C7.22461 30.9957 7.72379 25.8872 9.60783 21.2472C11.4919 16.6072 14.6762 12.644 18.758 9.85884C22.8398 7.07365 27.6358 5.59158 32.5395 5.60004C37.4432 5.6085 42.2344 7.10713 46.307 9.90639C50.3797 12.7057 53.5509 16.6798 55.4197 21.3263C57.9254 27.5563 57.9139 34.5513 55.3877 40.7726C52.8616 46.9939 48.0278 51.9321 41.9494 54.5009Z" fill="#757575"/>
<path d="M23.7411 9.38166C19.5349 11.1433 15.9368 14.1338 13.4019 17.975C10.867 21.8161 9.50914 26.3354 9.50005 30.9613C9.49096 35.5873 10.831 40.112 13.3508 43.9635C15.8706 47.8149 19.4569 50.82 23.6562 52.5987C27.8555 54.3774 32.4792 54.8499 36.9426 53.9564C41.406 53.0628 45.5086 50.8434 48.7315 47.5788C51.9545 44.3142 54.1531 40.151 55.0493 35.6157C55.9454 31.0805 55.499 26.3768 53.7663 22.0996C52.6166 19.2592 50.9279 16.677 48.7966 14.5005C46.6653 12.324 44.1331 10.5958 41.3448 9.41478C38.5565 8.23373 35.5667 7.62291 32.5462 7.61723C29.5257 7.61154 26.5337 8.21111 23.7411 9.38166ZM40.9333 51.8023C36.8893 53.4984 32.4414 53.9367 28.1523 53.0619C23.8632 52.1872 19.9256 50.0386 16.8374 46.8879C13.7493 43.7372 11.6493 39.726 10.8031 35.3616C9.95694 30.9972 10.4026 26.4756 12.0837 22.3687C13.7647 18.2619 16.6058 14.7542 20.2474 12.2894C23.889 9.82466 28.1676 8.51344 32.5421 8.52164C36.9166 8.52984 41.1904 9.85709 44.8231 12.3355C48.4557 14.8139 51.284 18.3322 52.9502 22.4453C54.0579 25.1752 54.6258 28.1002 54.6214 31.0534C54.6169 34.0065 54.0402 36.9298 52.9242 39.6561C51.8082 42.3825 50.1748 44.8585 48.1173 46.9426C46.0599 49.0267 43.6187 50.6781 40.9333 51.8023Z" fill="#757575"/>
<path d="M27.8491 32.8638C27.8514 33.3225 27.7789 33.7545 27.6317 34.1598C27.495 34.5651 27.2942 34.9225 27.0291 35.2318C26.7639 35.5305 26.4398 35.7705 26.0567 35.9518C25.6736 36.1225 25.2367 36.2078 24.746 36.2078C23.9567 36.2078 23.289 36.0105 22.743 35.6158C22.2077 35.2211 21.8314 34.6451 21.6143 33.8878L22.8925 33.5358C23.0227 33.9625 23.2377 34.3092 23.5378 34.5758C23.8378 34.8425 24.2171 34.9758 24.6758 34.9758C24.9851 34.9758 25.2515 34.9118 25.4748 34.7838C25.6981 34.6451 25.8839 34.4745 26.0322 34.2718C26.1805 34.0585 26.286 33.8238 26.3487 33.5678C26.422 33.3118 26.4581 33.0612 26.4569 32.8158C26.4533 32.1118 26.2586 31.5785 25.8728 31.2159C25.4869 30.8532 24.99 30.6719 24.382 30.6719H23.982L23.9762 29.5199H24.4082C24.9522 29.5199 25.3833 29.3439 25.7015 28.9919C26.0197 28.6399 26.1772 28.1492 26.1741 27.5199C26.173 27.3066 26.1399 27.0932 26.0748 26.8799C26.0203 26.6559 25.9287 26.4586 25.7998 26.2879C25.6816 26.1066 25.5208 25.9626 25.3176 25.8559C25.125 25.7386 24.8954 25.6799 24.6287 25.6799C24.2981 25.6799 24.0106 25.7813 23.7663 25.9839C23.522 26.1866 23.3313 26.4533 23.1943 26.7839L21.9444 26.3999C22.0707 26.0693 22.2293 25.7813 22.42 25.5359C22.6214 25.2906 22.8444 25.0879 23.0889 24.9279C23.3441 24.7679 23.6102 24.6506 23.8872 24.5759C24.1641 24.5013 24.4413 24.4639 24.7186 24.4639C25.1346 24.4639 25.5136 24.5333 25.8556 24.6719C26.1977 24.8106 26.492 25.0079 26.7386 25.2639C26.9959 25.5199 27.1948 25.8293 27.3353 26.1919C27.4758 26.5439 27.5471 26.9332 27.5492 27.3599C27.5508 27.6692 27.515 27.9732 27.4419 28.2719C27.3687 28.5599 27.258 28.8266 27.1099 29.0719C26.9724 29.3065 26.7975 29.5092 26.585 29.6799C26.3725 29.8505 26.1278 29.9679 25.8508 30.0319L25.8509 30.0639C26.4596 30.2025 26.9413 30.5225 27.2958 31.0239C27.661 31.5252 27.8454 32.1385 27.8491 32.8638ZM35.8217 32.4478C35.8247 33.0345 35.7474 33.5625 35.5898 34.0318C35.4427 34.4905 35.2261 34.8851 34.9398 35.2158C34.664 35.5358 34.3293 35.7811 33.9355 35.9518C33.5523 36.1225 33.1208 36.2078 32.6408 36.2078C32.1501 36.2078 31.707 36.1225 31.3115 35.9518C30.9266 35.7705 30.5946 35.5198 30.3157 35.1998C30.0367 34.8691 29.8213 34.4745 29.6697 34.0158C29.518 33.5572 29.4407 33.0398 29.4378 32.4638C29.435 31.8985 29.5069 31.3545 29.6536 30.8319C29.8109 30.2985 30.0162 29.7759 30.2696 29.2639L32.5504 24.6719H34.1024L31.7258 29.2959L31.7419 29.3119C31.9117 29.1519 32.1085 29.0346 32.3321 28.9599C32.5664 28.8852 32.7902 28.8479 33.0035 28.8479C33.3022 28.8479 33.6118 28.9066 33.9324 29.0239C34.2636 29.1305 34.5686 29.3225 34.8473 29.5999C35.126 29.8665 35.3572 30.2345 35.5409 30.7039C35.7246 31.1625 35.8182 31.7438 35.8217 32.4478ZM34.3817 32.4318C34.378 31.7065 34.231 31.1145 33.9407 30.6559C33.661 30.1865 33.2331 29.9519 32.6571 29.9519C32.3798 29.9519 32.1294 30.0159 31.9061 30.1439C31.6934 30.2719 31.5076 30.4479 31.3488 30.6719C31.2006 30.8959 31.0846 31.1625 31.0008 31.4719C30.917 31.7812 30.876 32.1118 30.8778 32.4638C30.8817 33.2318 31.0395 33.8452 31.3511 34.3038C31.6628 34.7625 32.096 34.9918 32.6506 34.9918C33.216 34.9918 33.6468 34.7571 33.9431 34.2878C34.2393 33.8185 34.3855 33.1998 34.3817 32.4318ZM43.2522 32.3838C43.2552 32.9918 43.178 33.5358 43.0204 34.0158C42.8735 34.4851 42.6622 34.8851 42.3865 35.2158C42.1215 35.5358 41.7974 35.7811 41.4142 35.9518C41.0418 36.1225 40.6315 36.2078 40.1835 36.2078C39.4475 36.2078 38.8225 36.0158 38.3086 35.6318C37.8053 35.2478 37.4452 34.6985 37.2283 33.9838L38.4582 33.5678C38.6096 33.9838 38.8246 34.3198 39.1033 34.5758C39.3925 34.8211 39.7398 34.9438 40.1451 34.9438C40.6678 34.9438 41.0827 34.7198 41.3897 34.2718C41.7074 33.8132 41.8643 33.1998 41.8604 32.4318C41.8565 31.6639 41.6828 31.0612 41.3393 30.6239C40.9957 30.1759 40.5092 29.9519 39.8799 29.9519C39.5705 29.9519 39.2295 30.0052 38.8567 30.1119C38.4838 30.2079 38.1698 30.3305 37.9145 30.4799L38.0451 24.6719H42.8291L42.8355 25.9359H39.2835L39.1716 29.1039C39.3418 29.0186 39.5335 28.9546 39.7466 28.9119C39.9703 28.8586 40.1675 28.8319 40.3382 28.8319C40.8182 28.8319 41.24 28.9226 41.6036 29.1039C41.9671 29.2745 42.267 29.5145 42.5032 29.8239C42.7501 30.1332 42.9333 30.5065 43.0529 30.9439C43.1831 31.3812 43.2495 31.8612 43.2522 32.3838Z" fill="#373737"/>
</g>
<defs>
<clipPath id="clip0_15396_11113">
<rect width="60" height="60" fill="white" transform="translate(0.5 0.5)"/>
</clipPath>
</defs>
</svg>
