<svg width="61" height="61" viewBox="0 0 61 61" fill="none" xmlns="http://www.w3.org/2000/svg">
<g clip-path="url(#clip0_15396_11040)">
<path d="M32.5034 55.1107C46.3157 55.1107 57.5127 43.9333 57.5127 30.1452C57.5127 16.3571 46.3157 5.17969 32.5034 5.17969C18.6912 5.17969 7.49414 16.3571 7.49414 30.1452C7.49414 43.9333 18.6912 55.1107 32.5034 55.1107Z" fill="white"/>
<path d="M56.8585 18.6051C56.0431 18.2062 55.3564 17.5762 54.8797 16.7896C54.403 16.0031 54.1562 15.0929 54.1686 14.1671C54.1949 13.7496 54.1399 13.331 54.007 12.9355C53.874 12.5401 53.6656 12.1756 53.394 11.8634C53.1223 11.5512 52.7929 11.2975 52.4247 11.1169C52.0565 10.9364 51.657 10.8327 51.2493 10.8119C50.3505 10.7236 49.4953 10.3726 48.7855 9.80046C48.0757 9.22837 47.5413 8.45934 47.2458 7.58487C47.1312 7.18225 46.9396 6.80701 46.6823 6.48097C46.4249 6.15493 46.1068 5.88461 45.7465 5.68574C45.3862 5.48687 44.991 5.36341 44.5837 5.32256C44.1764 5.28171 43.7653 5.32428 43.3743 5.44779C42.4961 5.68438 41.57 5.65632 40.707 5.36697C39.844 5.07762 39.0808 4.53927 38.5088 3.81648C38.2667 3.47932 37.9616 3.19489 37.6111 2.97977C37.2607 2.76465 36.8721 2.62314 36.4678 2.56347C36.0635 2.5038 35.6516 2.52717 35.2562 2.63222C34.8608 2.73727 34.4898 2.9219 34.1647 3.17536C33.4216 3.70071 32.5466 3.99554 31.6443 4.0246C30.742 4.05366 29.8506 3.8157 29.0768 3.3392C28.7369 3.10728 28.3553 2.94697 27.9544 2.8676C27.5534 2.78824 27.1411 2.79141 26.7413 2.87693C26.3416 2.96245 25.9624 3.12861 25.6259 3.36573C25.2895 3.60286 25.0023 3.90622 24.7813 4.25815C24.2584 5.01234 23.5345 5.59617 22.6963 5.93979C21.8581 6.28341 20.9411 6.37228 20.0549 6.19577C19.6587 6.10204 19.2483 6.08947 18.8474 6.1588C18.4464 6.22812 18.0628 6.37797 17.7186 6.59973C17.3743 6.82149 17.0762 7.11079 16.8414 7.45101C16.6065 7.79122 16.4396 8.17564 16.3502 8.58218C16.1095 9.47359 15.6238 10.2753 14.9509 10.8916C14.278 11.508 13.4464 11.913 12.5552 12.0585C12.1468 12.1051 11.7515 12.2348 11.3927 12.44C11.0338 12.6452 10.7186 12.9218 10.4654 13.2536C10.2123 13.5854 10.0263 13.9656 9.91851 14.372C9.81068 14.7784 9.78313 15.2028 9.83748 15.6203C9.90693 16.5387 9.71712 17.4582 9.2907 18.2691C8.86428 19.0801 8.21925 19.7481 7.43256 20.1937C7.06473 20.3777 6.73639 20.635 6.46674 20.9506C6.19708 21.2662 5.99153 21.6337 5.86209 22.0317C5.73266 22.4296 5.68194 22.8501 5.71291 23.2684C5.74387 23.6866 5.8559 24.0944 6.04244 24.4678C6.42166 25.3064 6.55776 26.2391 6.43453 27.1547C6.31131 28.0703 5.93395 28.9303 5.34738 29.6324C5.06648 29.9358 4.84709 30.2933 4.70191 30.6842C4.55672 31.0751 4.48862 31.4916 4.50155 31.9097C4.51448 32.3277 4.60818 32.739 4.77722 33.1196C4.94627 33.5003 5.18731 33.8429 5.48639 34.1274C6.12052 34.7877 6.55597 35.6209 6.74083 36.5278C6.92569 37.4347 6.85215 38.3769 6.52898 39.2422C6.36511 39.6249 6.27703 40.0371 6.26987 40.455C6.26271 40.8728 6.33661 41.288 6.48728 41.6764C6.63794 42.0647 6.86237 42.4185 7.14754 42.7173C7.43271 43.016 7.77294 43.2537 8.14848 43.4166C8.96413 43.8144 9.65083 44.4444 10.1266 45.2314C10.6023 46.0183 10.847 46.929 10.8314 47.8546C10.8051 48.2717 10.8601 48.6899 10.9932 49.085C11.1262 49.4801 11.3347 49.844 11.6064 50.1557C11.8781 50.4673 12.2077 50.7204 12.5758 50.9002C12.944 51.0799 13.3434 51.1828 13.7507 51.2027C14.6501 51.2892 15.5061 51.6397 16.2161 52.212C16.9262 52.7843 17.4602 53.5543 17.7542 54.4297C17.8688 54.8323 18.0604 55.2076 18.3178 55.5336C18.5751 55.8596 18.8932 56.13 19.2535 56.3288C19.6138 56.5277 20.009 56.6512 20.4163 56.692C20.8236 56.7329 21.2347 56.6903 21.6257 56.5668C22.5038 56.3265 23.431 56.3528 24.2947 56.6424C25.1584 56.932 25.9215 57.4724 26.4912 58.1981C26.7339 58.5345 27.0393 58.8182 27.3897 59.0327C27.7402 59.2473 28.1286 59.3885 28.5327 59.4481C28.9367 59.5077 29.3483 59.4846 29.7435 59.3801C30.1388 59.2756 30.5099 59.0917 30.8353 58.8392C31.5784 58.3139 32.4534 58.019 33.3557 57.99C34.258 57.9609 35.1494 58.1989 35.9232 58.6754C36.2635 58.907 36.6454 59.0668 37.0467 59.1457C37.4479 59.2245 37.8604 59.2207 38.2602 59.1345C38.66 59.0483 39.039 58.8815 39.3753 58.6436C39.7115 58.4058 39.9982 58.1018 40.2187 57.7493C40.7439 56.9959 41.4691 56.4128 42.3082 56.0693C43.1473 55.7258 44.0649 55.6364 44.9521 55.8117C45.3483 55.9109 45.7599 55.9282 46.1628 55.8626C46.5657 55.797 46.9518 55.6498 47.2986 55.4297C47.6454 55.2095 47.946 54.9208 48.1827 54.5803C48.4195 54.2398 48.5877 53.8545 48.6776 53.4466C48.9155 52.5573 49.3966 51.7562 50.064 51.1377C50.7315 50.5193 51.5575 50.1093 52.4448 49.9561C52.8536 49.9104 53.2494 49.7813 53.6087 49.5764C53.968 49.3715 54.2836 49.0948 54.5369 48.7629C54.7902 48.4309 54.9761 48.0502 55.0835 47.6434C55.191 47.2366 55.2178 46.8119 55.1625 46.3943C55.0928 45.4719 55.2822 44.5484 55.7084 43.7329C56.1346 42.9174 56.7797 42.244 57.5674 41.7924C57.9353 41.6084 58.2636 41.3511 58.5333 41.0355C58.8029 40.7199 59.0085 40.3524 59.1379 39.9544C59.2673 39.5564 59.3181 39.136 59.2871 38.7177C59.2561 38.2994 59.1441 37.8917 58.9576 37.5183C58.5783 36.6797 58.4422 35.747 58.5655 34.8314C58.6887 33.9158 59.0661 33.0557 59.6526 32.3536C59.9335 32.0502 60.1529 31.6927 60.2981 31.3019C60.4433 30.911 60.5114 30.4945 60.4985 30.0764C60.4855 29.6584 60.3918 29.2471 60.2228 28.8664C60.0537 28.4858 59.8127 28.1432 59.5136 27.8587C58.8801 27.1995 58.4449 26.3675 58.2601 25.4618C58.0752 24.5562 58.1484 23.6152 58.471 22.751C58.6317 22.3704 58.7175 21.961 58.7234 21.5463C58.7293 21.1317 58.6551 20.7199 58.5053 20.3347C58.3555 19.9494 58.1329 19.5983 57.8502 19.3015C57.5676 19.0047 57.2306 18.768 56.8585 18.6051ZM41.9494 54.5009C37.416 56.4169 32.43 56.912 27.6221 55.9236C22.8141 54.9353 18.4001 52.5078 14.9383 48.9484C11.4764 45.3889 9.12223 40.8572 8.17342 35.9264C7.22461 30.9957 7.72379 25.8872 9.60783 21.2472C11.4919 16.6072 14.6762 12.644 18.758 9.85884C22.8398 7.07365 27.6358 5.59158 32.5395 5.60004C37.4432 5.6085 42.2344 7.10713 46.307 9.90639C50.3797 12.7057 53.5509 16.6798 55.4197 21.3263C57.9254 27.5563 57.9139 34.5513 55.3877 40.7726C52.8616 46.9939 48.0278 51.9321 41.9494 54.5009Z" fill="#757575"/>
<path d="M23.7411 9.38166C19.5349 11.1433 15.9368 14.1338 13.4019 17.975C10.867 21.8161 9.50914 26.3354 9.50005 30.9613C9.49096 35.5873 10.831 40.112 13.3508 43.9635C15.8706 47.8149 19.4569 50.82 23.6562 52.5987C27.8555 54.3774 32.4792 54.8499 36.9426 53.9564C41.406 53.0628 45.5086 50.8434 48.7315 47.5788C51.9545 44.3142 54.1531 40.151 55.0493 35.6157C55.9454 31.0805 55.499 26.3768 53.7663 22.0996C52.6166 19.2592 50.9279 16.677 48.7966 14.5005C46.6653 12.324 44.1331 10.5958 41.3448 9.41478C38.5565 8.23373 35.5667 7.62291 32.5462 7.61723C29.5257 7.61154 26.5337 8.21111 23.7411 9.38166ZM40.9333 51.8023C36.8893 53.4984 32.4414 53.9367 28.1523 53.0619C23.8632 52.1872 19.9256 50.0386 16.8374 46.8879C13.7493 43.7372 11.6493 39.726 10.8031 35.3616C9.95694 30.9972 10.4026 26.4756 12.0837 22.3687C13.7647 18.2619 16.6058 14.7542 20.2474 12.2894C23.889 9.82466 28.1676 8.51344 32.5421 8.52164C36.9166 8.52984 41.1904 9.85709 44.8231 12.3355C48.4557 14.8139 51.284 18.3322 52.9502 22.4453C54.0579 25.1752 54.6258 28.1002 54.6214 31.0534C54.6169 34.0065 54.0402 36.9298 52.9242 39.6561C51.8082 42.3825 50.1748 44.8585 48.1173 46.9426C46.0599 49.0267 43.6187 50.6781 40.9333 51.8023Z" fill="#757575"/>
<path d="M31.6461 27.5199C31.6479 27.8826 31.6016 28.2239 31.5072 28.5439C31.4235 28.8532 31.3024 29.1625 31.1439 29.4719C30.9961 29.7705 30.8163 30.0745 30.6045 30.3839C30.4034 30.6825 30.181 30.9972 29.9373 31.3279L27.4586 34.7358H31.5386L31.545 35.9998H25.881L25.8742 34.6718L29.0205 30.3679C29.3913 29.8665 29.6769 29.3919 29.8773 28.9439C30.0777 28.4959 30.1767 28.0479 30.1745 27.5999C30.1719 27.0879 30.0523 26.6452 29.8157 26.2719C29.5792 25.8986 29.2156 25.7119 28.7249 25.7119C28.2982 25.7119 27.947 25.8613 27.6712 26.1599C27.3953 26.4479 27.2161 26.8692 27.1336 27.4239L25.7728 27.2799C25.9175 26.3519 26.2553 25.6533 26.7862 25.1839C27.3171 24.7039 27.9933 24.4639 28.8146 24.4639C29.2733 24.4639 29.679 24.5439 30.0318 24.7039C30.3846 24.8639 30.6791 25.0826 30.9151 25.3599C31.1511 25.6266 31.3288 25.9466 31.448 26.3199C31.5779 26.6932 31.6439 27.0932 31.6461 27.5199ZM36.5917 35.9998L36.5427 26.3199L34.5345 27.8559L33.8568 26.7359L36.6144 24.6719H37.9424L37.9997 35.9998H36.5917Z" fill="#373737"/>
</g>
<defs>
<clipPath id="clip0_15396_11040">
<rect width="60" height="60" fill="white" transform="translate(0.5 0.5)"/>
</clipPath>
</defs>
</svg>
